<?xml version="1.0" encoding="utf-8"?>
<!-- Generator: Adobe Illustrator 27.1.1, SVG Export Plug-In . SVG Version: 6.00 Build 0)  -->
<svg version="1.1" xmlns="http://www.w3.org/2000/svg" xmlns:xlink="http://www.w3.org/1999/xlink" x="0px" y="0px"
	 viewBox="0 0 150 150" style="enable-background:new 0 0 150 150;" xml:space="preserve">
<style type="text/css">
	.st0{fill:#9356DC;}
</style>
<g id="Calque_1">
</g>
<g id="Layer_1">
	<path class="st0" d="M85.64,29.17c0-1.8-0.8-3.4-2-3.4h-0.2c-1,0.2-1.8,1.8-1.8,3.4l-0.6,17c0,1.2-0.8,2-1.6,2c-0.8,0-1.6-1-1.6-2
		l-0.4-19.6c0-1.4-0.4-2.4-1.2-3l-0.2-0.2h-0.2h-0.2h-0.2h-0.2h-0.2h-0.2l-0.2,0.2c-0.6,0.6-1.2,1.8-1.2,3l-0.4,19.6
		c0,1.2-0.8,2-1.6,2s-1.6-1-1.6-2l-0.6-16.8c0-1.8-0.8-3.4-1.8-3.4h-0.2c-1,0-2,1.4-2,3.4l-0.6,19.2v6.4c0,4,2,7.2,4.6,8.4
		c1,0.6,1.8,1,2.4,2.4c0.4,1.2,0.6,2.2,0.6,3.4l-1,49.6c0,4.8,1.8,8.8,4,8.8h0.4c2.2,0,4-4,4-8.8c0-9-1-49.6-1-49.6
		c0-1.2,0.2-2.4,0.6-3.4c0.6-1.4,1.4-1.8,2.4-2.4c2.6-1.2,4.6-4.6,4.6-8.4v-6.4L85.64,29.17L85.64,29.17z"/>
</g>
</svg>
